<svg width="32" height="32" viewBox="0 0 32 32" fill="none" xmlns="http://www.w3.org/2000/svg">
<path fill-rule="evenodd" clip-rule="evenodd" d="M28 14.6666L28 23.3333C28 26.1617 28 27.5759 27.1213 28.4546C26.2426 29.3333 24.8284 29.3333 22 29.3333H10C7.17157 29.3333 5.75736 29.3333 4.87868 28.4546C4 27.5759 4 26.1617 4 23.3333V14.6666C4 16.5522 4 17.4951 4.58579 18.0808C5.17157 18.6666 6.11438 18.6666 8 18.6666H9.22515C9.92087 18.6666 10.2687 18.6666 10.5306 18.8554C10.7925 19.0441 10.9025 19.3742 11.1225 20.0342L11.5442 21.2991C11.7642 21.9591 11.8742 22.2891 12.136 22.4779C12.3979 22.6666 12.7458 22.6666 13.4415 22.6666H18.5585C19.2542 22.6666 19.6021 22.6666 19.864 22.4779C20.1258 22.2891 20.2358 21.9591 20.4558 21.2991L20.8775 20.0342C21.0975 19.3742 21.2075 19.0441 21.4694 18.8554C21.7313 18.6666 22.0791 18.6666 22.7749 18.6666H24C25.8856 18.6666 26.8284 18.6666 27.4142 18.0808C28 17.4951 28 16.5522 28 14.6666Z" fill="#818899"/>
<path d="M21.3333 8H22C24.8284 8 26.2426 8 27.1213 8.87868C28 9.75736 28 11.1716 28 14V23.3333C28 26.1618 28 27.576 27.1213 28.4547C26.2426 29.3333 24.8284 29.3333 22 29.3333H10C7.17157 29.3333 5.75736 29.3333 4.87868 28.4547C4 27.576 4 26.1618 4 23.3333V14C4 11.1716 4 9.75736 4.87868 8.87868C5.75736 8 7.17157 8 10 8H10.6667" stroke="#818899" stroke-width="3" stroke-linejoin="round"/>
<path d="M10.6667 13.3334L16.0001 17.3334M16.0001 17.3334L21.3334 13.3334M16.0001 17.3334L16.0001 4.00004" stroke="#818899" stroke-width="3" stroke-linecap="round" stroke-linejoin="round"/>
</svg>
