<svg width="32" height="32" viewBox="0 0 32 32" fill="none" xmlns="http://www.w3.org/2000/svg">
<path fill-rule="evenodd" clip-rule="evenodd" d="M3.83808 3.83829C2.6665 5.00986 2.6665 6.89548 2.6665 10.6667V21.3334C2.6665 25.1046 2.6665 26.9902 3.83808 28.1618C5.00965 29.3334 6.89527 29.3334 10.6665 29.3334H21.3332C25.1044 29.3334 26.99 29.3334 28.1616 28.1618C29.3332 26.9902 29.3332 25.1046 29.3332 21.3334V10.6667C29.3332 7.54162 29.3332 5.71135 28.6665 4.50925V22.6667C28.3292 22.6667 28.1606 22.6667 27.9984 22.6535C27.1641 22.5855 26.3721 22.2575 25.7341 21.7156C25.61 21.6102 25.4908 21.491 25.2523 21.2525L24.1616 20.1618C22.8283 18.8285 22.1616 18.1618 21.3332 18.1618C20.5047 18.1618 19.8381 18.8285 18.5047 20.1618L18.0887 20.5779C17.1423 21.5243 16.6691 21.9975 16.148 21.8972C15.627 21.7968 15.3634 21.1817 14.8362 19.9515L14.3272 18.7638C13.2727 16.3034 12.7455 15.0732 11.7034 14.8725C10.6614 14.6718 9.71497 15.6183 7.82216 17.5111L4.6665 20.6667V3.25159C4.35295 3.40399 4.08026 3.59611 3.83808 3.83829Z" fill="#818899"/>
<path d="M10.6665 4.16663H21.3332C23.2612 4.16663 24.5563 4.16981 25.5224 4.2997C26.4453 4.42378 26.8403 4.63823 27.1009 4.89886C27.3616 5.15949 27.576 5.55449 27.7001 6.47741C27.83 7.44348 27.8332 8.7386 27.8332 10.6666V21.3333C27.8332 23.2613 27.83 24.5564 27.7001 25.5225C27.576 26.4454 27.3616 26.8404 27.1009 27.1011C26.8403 27.3617 26.4453 27.5761 25.5224 27.7002C24.5563 27.8301 23.2612 27.8333 21.3332 27.8333H10.6665C8.73848 27.8333 7.44336 27.8301 6.47729 27.7002C5.55437 27.5761 5.15937 27.3617 4.89874 27.1011C4.6381 26.8404 4.42366 26.4454 4.29957 25.5225C4.16969 24.5564 4.1665 23.2613 4.1665 21.3333V10.6666C4.1665 8.7386 4.16969 7.44348 4.29957 6.47741C4.42366 5.55449 4.6381 5.15949 4.89874 4.89886C5.15937 4.63823 5.55437 4.42378 6.47729 4.2997C7.44336 4.16981 8.73848 4.16663 10.6665 4.16663Z" stroke="#818899" stroke-width="3"/>
<ellipse cx="20.0002" cy="12" rx="2.66667" ry="2.66667" fill="#818899"/>
</svg>
